<svg width="350" height="350" version="1.1" xmlns="http://www.w3.org/2000/svg" xmlns:xlink="http://www.w3.org/1999/xlink"><svg><rect x="0" y="0" width="350" height="350" style="fill:#fff;shape-rendering:crispEdges;"></rect><path x="0" y="0" style="fill:#24292F;shape-rendering:crispEdges;" d="M0,0 V12.07 H12.07 V0 H0 Z M12.07,0 V12.07 H24.14 V0 H12.07 Z M24.14,0 V12.07 H36.21 V0 H24.14 Z M36.21,0 V12.07 H48.28 V0 H36.21 Z M48.28,0 V12.07 H60.34 V0 H48.28 Z M60.34,0 V12.07 H72.41 V0 H60.34 Z M72.41,0 V12.07 H84.48 V0 H72.41 Z M120.69,0 V12.07 H132.76 V0 H120.69 Z M181.03,0 V12.07 H193.10 V0 H181.03 Z M205.17,0 V12.07 H217.24 V0 H205.17 Z M217.24,0 V12.07 H229.31 V0 H217.24 Z M229.31,0 V12.07 H241.38 V0 H229.31 Z M241.38,0 V12.07 H253.45 V0 H241.38 Z M265.52,0 V12.07 H277.59 V0 H265.52 Z M277.59,0 V12.07 H289.66 V0 H277.59 Z M289.66,0 V12.07 H301.72 V0 H289.66 Z M301.72,0 V12.07 H313.79 V0 H301.72 Z M313.79,0 V12.07 H325.86 V0 H313.79 Z M325.86,0 V12.07 H337.93 V0 H325.86 Z M337.93,0 V12.07 H350 V0 H337.93 Z M0,12.07 V24.14 H12.07 V12.07 H0 Z M72.41,12.07 V24.14 H84.48 V12.07 H72.41 Z M96.55,12.07 V24.14 H108.62 V12.07 H96.55 Z M108.62,12.07 V24.14 H120.69 V12.07 H108.62 Z M132.76,12.07 V24.14 H144.83 V12.07 H132.76 Z M168.97,12.07 V24.14 H181.03 V12.07 H168.97 Z M193.10,12.07 V24.14 H205.17 V12.07 H193.10 Z M205.17,12.07 V24.14 H217.24 V12.07 H205.17 Z M217.24,12.07 V24.14 H229.31 V12.07 H217.24 Z M265.52,12.07 V24.14 H277.59 V12.07 H265.52 Z M337.93,12.07 V24.14 H350 V12.07 H337.93 Z M0,24.14 V36.21 H12.07 V24.14 H0 Z M24.14,24.14 V36.21 H36.21 V24.14 H24.14 Z M36.21,24.14 V36.21 H48.28 V24.14 H36.21 Z M48.28,24.14 V36.21 H60.34 V24.14 H48.28 Z M72.41,24.14 V36.21 H84.48 V24.14 H72.41 Z M108.62,24.14 V36.21 H120.69 V24.14 H108.62 Z M132.76,24.14 V36.21 H144.83 V24.14 H132.76 Z M156.90,24.14 V36.21 H168.97 V24.14 H156.90 Z M181.03,24.14 V36.21 H193.10 V24.14 H181.03 Z M205.17,24.14 V36.21 H217.24 V24.14 H205.17 Z M217.24,24.14 V36.21 H229.31 V24.14 H217.24 Z M265.52,24.14 V36.21 H277.59 V24.14 H265.52 Z M289.66,24.14 V36.21 H301.72 V24.14 H289.66 Z M301.72,24.14 V36.21 H313.79 V24.14 H301.72 Z M313.79,24.14 V36.21 H325.86 V24.14 H313.79 Z M337.93,24.14 V36.21 H350 V24.14 H337.93 Z M0,36.21 V48.28 H12.07 V36.21 H0 Z M24.14,36.21 V48.28 H36.21 V36.21 H24.14 Z M36.21,36.21 V48.28 H48.28 V36.21 H36.21 Z M48.28,36.21 V48.28 H60.34 V36.21 H48.28 Z M72.41,36.21 V48.28 H84.48 V36.21 H72.41 Z M108.62,36.21 V48.28 H120.69 V36.21 H108.62 Z M120.69,36.21 V48.28 H132.76 V36.21 H120.69 Z M132.76,36.21 V48.28 H144.83 V36.21 H132.76 Z M144.83,36.21 V48.28 H156.90 V36.21 H144.83 Z M156.90,36.21 V48.28 H168.97 V36.21 H156.90 Z M181.03,36.21 V48.28 H193.10 V36.21 H181.03 Z M193.10,36.21 V48.28 H205.17 V36.21 H193.10 Z M217.24,36.21 V48.28 H229.31 V36.21 H217.24 Z M229.31,36.21 V48.28 H241.38 V36.21 H229.31 Z M265.52,36.21 V48.28 H277.59 V36.21 H265.52 Z M289.66,36.21 V48.28 H301.72 V36.21 H289.66 Z M301.72,36.21 V48.28 H313.79 V36.21 H301.72 Z M313.79,36.21 V48.28 H325.86 V36.21 H313.79 Z M337.93,36.21 V48.28 H350 V36.21 H337.93 Z M0,48.28 V60.34 H12.07 V48.28 H0 Z M24.14,48.28 V60.34 H36.21 V48.28 H24.14 Z M36.21,48.28 V60.34 H48.28 V48.28 H36.21 Z M48.28,48.28 V60.34 H60.34 V48.28 H48.28 Z M72.41,48.28 V60.34 H84.48 V48.28 H72.41 Z M108.62,48.28 V60.34 H120.69 V48.28 H108.62 Z M144.83,48.28 V60.34 H156.90 V48.28 H144.83 Z M193.10,48.28 V60.34 H205.17 V48.28 H193.10 Z M229.31,48.28 V60.34 H241.38 V48.28 H229.31 Z M241.38,48.28 V60.34 H253.45 V48.28 H241.38 Z M265.52,48.28 V60.34 H277.59 V48.28 H265.52 Z M289.66,48.28 V60.34 H301.72 V48.28 H289.66 Z M301.72,48.28 V60.34 H313.79 V48.28 H301.72 Z M313.79,48.28 V60.34 H325.86 V48.28 H313.79 Z M337.93,48.28 V60.34 H350 V48.28 H337.93 Z M0,60.34 V72.41 H12.07 V60.34 H0 Z M72.41,60.34 V72.41 H84.48 V60.34 H72.41 Z M144.83,60.34 V72.41 H156.90 V60.34 H144.83 Z M168.97,60.34 V72.41 H181.03 V60.34 H168.97 Z M193.10,60.34 V72.41 H205.17 V60.34 H193.10 Z M217.24,60.34 V72.41 H229.31 V60.34 H217.24 Z M265.52,60.34 V72.41 H277.59 V60.34 H265.52 Z M337.93,60.34 V72.41 H350 V60.34 H337.93 Z M0,72.41 V84.48 H12.07 V72.41 H0 Z M12.07,72.41 V84.48 H24.14 V72.41 H12.07 Z M24.14,72.41 V84.48 H36.21 V72.41 H24.14 Z M36.21,72.41 V84.48 H48.28 V72.41 H36.21 Z M48.28,72.41 V84.48 H60.34 V72.41 H48.28 Z M60.34,72.41 V84.48 H72.41 V72.41 H60.34 Z M72.41,72.41 V84.48 H84.48 V72.41 H72.41 Z M96.55,72.41 V84.48 H108.62 V72.41 H96.55 Z M120.69,72.41 V84.48 H132.76 V72.41 H120.69 Z M144.83,72.41 V84.48 H156.90 V72.41 H144.83 Z M168.97,72.41 V84.48 H181.03 V72.41 H168.97 Z M193.10,72.41 V84.48 H205.17 V72.41 H193.10 Z M217.24,72.41 V84.48 H229.31 V72.41 H217.24 Z M241.38,72.41 V84.48 H253.45 V72.41 H241.38 Z M265.52,72.41 V84.48 H277.59 V72.41 H265.52 Z M277.59,72.41 V84.48 H289.66 V72.41 H277.59 Z M289.66,72.41 V84.48 H301.72 V72.41 H289.66 Z M301.72,72.41 V84.48 H313.79 V72.41 H301.72 Z M313.79,72.41 V84.48 H325.86 V72.41 H313.79 Z M325.86,72.41 V84.48 H337.93 V72.41 H325.86 Z M337.93,72.41 V84.48 H350 V72.41 H337.93 Z M96.55,84.48 V96.55 H108.62 V84.48 H96.55 Z M120.69,84.48 V96.55 H132.76 V84.48 H120.69 Z M144.83,84.48 V96.55 H156.90 V84.48 H144.83 Z M156.90,84.48 V96.55 H168.97 V84.48 H156.90 Z M193.10,84.48 V96.55 H205.17 V84.48 H193.10 Z M229.31,84.48 V96.55 H241.38 V84.48 H229.31 Z M241.38,84.48 V96.55 H253.45 V84.48 H241.38 Z M0,96.55 V108.62 H12.07 V96.55 H0 Z M12.07,96.55 V108.62 H24.14 V96.55 H12.07 Z M72.41,96.55 V108.62 H84.48 V96.55 H72.41 Z M96.55,96.55 V108.62 H108.62 V96.55 H96.55 Z M108.62,96.55 V108.62 H120.69 V96.55 H108.62 Z M120.69,96.55 V108.62 H132.76 V96.55 H120.69 Z M168.97,96.55 V108.62 H181.03 V96.55 H168.97 Z M181.03,96.55 V108.62 H193.10 V96.55 H181.03 Z M205.17,96.55 V108.62 H217.24 V96.55 H205.17 Z M229.31,96.55 V108.62 H241.38 V96.55 H229.31 Z M241.38,96.55 V108.62 H253.45 V96.55 H241.38 Z M253.45,96.55 V108.62 H265.52 V96.55 H253.45 Z M265.52,96.55 V108.62 H277.59 V96.55 H265.52 Z M325.86,96.55 V108.62 H337.93 V96.55 H325.86 Z M0,108.62 V120.69 H12.07 V108.62 H0 Z M12.07,108.62 V120.69 H24.14 V108.62 H12.07 Z M60.34,108.62 V120.69 H72.41 V108.62 H60.34 Z M120.69,108.62 V120.69 H132.76 V108.62 H120.69 Z M132.76,108.62 V120.69 H144.83 V108.62 H132.76 Z M144.83,108.62 V120.69 H156.90 V108.62 H144.83 Z M156.90,108.62 V120.69 H168.97 V108.62 H156.90 Z M205.17,108.62 V120.69 H217.24 V108.62 H205.17 Z M217.24,108.62 V120.69 H229.31 V108.62 H217.24 Z M265.52,108.62 V120.69 H277.59 V108.62 H265.52 Z M289.66,108.62 V120.69 H301.72 V108.62 H289.66 Z M301.72,108.62 V120.69 H313.79 V108.62 H301.72 Z M325.86,108.62 V120.69 H337.93 V108.62 H325.86 Z M12.07,120.69 V132.76 H24.14 V120.69 H12.07 Z M24.14,120.69 V132.76 H36.21 V120.69 H24.14 Z M36.21,120.69 V132.76 H48.28 V120.69 H36.21 Z M48.28,120.69 V132.76 H60.34 V120.69 H48.28 Z M60.34,120.69 V132.76 H72.41 V120.69 H60.34 Z M72.41,120.69 V132.76 H84.48 V120.69 H72.41 Z M96.55,120.69 V132.76 H108.62 V120.69 H96.55 Z M120.69,120.69 V132.76 H132.76 V120.69 H120.69 Z M156.90,120.69 V132.76 H168.97 V120.69 H156.90 Z M181.03,120.69 V132.76 H193.10 V120.69 H181.03 Z M205.17,120.69 V132.76 H217.24 V120.69 H205.17 Z M217.24,120.69 V132.76 H229.31 V120.69 H217.24 Z M241.38,120.69 V132.76 H253.45 V120.69 H241.38 Z M289.66,120.69 V132.76 H301.72 V120.69 H289.66 Z M313.79,120.69 V132.76 H325.86 V120.69 H313.79 Z M12.07,132.76 V144.83 H24.14 V132.76 H12.07 Z M24.14,132.76 V144.83 H36.21 V132.76 H24.14 Z M48.28,132.76 V144.83 H60.34 V132.76 H48.28 Z M108.62,132.76 V144.83 H120.69 V132.76 H108.62 Z M132.76,132.76 V144.83 H144.83 V132.76 H132.76 Z M144.83,132.76 V144.83 H156.90 V132.76 H144.83 Z M156.90,132.76 V144.83 H168.97 V132.76 H156.90 Z M168.97,132.76 V144.83 H181.03 V132.76 H168.97 Z M181.03,132.76 V144.83 H193.10 V132.76 H181.03 Z M193.10,132.76 V144.83 H205.17 V132.76 H193.10 Z M205.17,132.76 V144.83 H217.24 V132.76 H205.17 Z M217.24,132.76 V144.83 H229.31 V132.76 H217.24 Z M241.38,132.76 V144.83 H253.45 V132.76 H241.38 Z M253.45,132.76 V144.83 H265.52 V132.76 H253.45 Z M301.72,132.76 V144.83 H313.79 V132.76 H301.72 Z M325.86,132.76 V144.83 H337.93 V132.76 H325.86 Z M337.93,132.76 V144.83 H350 V132.76 H337.93 Z M12.07,144.83 V156.90 H24.14 V144.83 H12.07 Z M24.14,144.83 V156.90 H36.21 V144.83 H24.14 Z M36.21,144.83 V156.90 H48.28 V144.83 H36.21 Z M48.28,144.83 V156.90 H60.34 V144.83 H48.28 Z M60.34,144.83 V156.90 H72.41 V144.83 H60.34 Z M72.41,144.83 V156.90 H84.48 V144.83 H72.41 Z M84.48,144.83 V156.90 H96.55 V144.83 H84.48 Z M108.62,144.83 V156.90 H120.69 V144.83 H108.62 Z M120.69,144.83 V156.90 H132.76 V144.83 H120.69 Z M132.76,144.83 V156.90 H144.83 V144.83 H132.76 Z M144.83,144.83 V156.90 H156.90 V144.83 H144.83 Z M217.24,144.83 V156.90 H229.31 V144.83 H217.24 Z M229.31,144.83 V156.90 H241.38 V144.83 H229.31 Z M253.45,144.83 V156.90 H265.52 V144.83 H253.45 Z M60.34,156.90 V168.97 H72.41 V156.90 H60.34 Z M84.48,156.90 V168.97 H96.55 V156.90 H84.48 Z M96.55,156.90 V168.97 H108.62 V156.90 H96.55 Z M144.83,156.90 V168.97 H156.90 V156.90 H144.83 Z M156.90,156.90 V168.97 H168.97 V156.90 H156.90 Z M205.17,156.90 V168.97 H217.24 V156.90 H205.17 Z M241.38,156.90 V168.97 H253.45 V156.90 H241.38 Z M253.45,156.90 V168.97 H265.52 V156.90 H253.45 Z M277.59,156.90 V168.97 H289.66 V156.90 H277.59 Z M325.86,156.90 V168.97 H337.93 V156.90 H325.86 Z M12.07,168.97 V181.03 H24.14 V168.97 H12.07 Z M36.21,168.97 V181.03 H48.28 V168.97 H36.21 Z M72.41,168.97 V181.03 H84.48 V168.97 H72.41 Z M84.48,168.97 V181.03 H96.55 V168.97 H84.48 Z M108.62,168.97 V181.03 H120.69 V168.97 H108.62 Z M120.69,168.97 V181.03 H132.76 V168.97 H120.69 Z M168.97,168.97 V181.03 H181.03 V168.97 H168.97 Z M181.03,168.97 V181.03 H193.10 V168.97 H181.03 Z M205.17,168.97 V181.03 H217.24 V168.97 H205.17 Z M229.31,168.97 V181.03 H241.38 V168.97 H229.31 Z M241.38,168.97 V181.03 H253.45 V168.97 H241.38 Z M277.59,168.97 V181.03 H289.66 V168.97 H277.59 Z M313.79,168.97 V181.03 H325.86 V168.97 H313.79 Z M337.93,168.97 V181.03 H350 V168.97 H337.93 Z M0,181.03 V193.10 H12.07 V181.03 H0 Z M12.07,181.03 V193.10 H24.14 V181.03 H12.07 Z M24.14,181.03 V193.10 H36.21 V181.03 H24.14 Z M48.28,181.03 V193.10 H60.34 V181.03 H48.28 Z M60.34,181.03 V193.10 H72.41 V181.03 H60.34 Z M84.48,181.03 V193.10 H96.55 V181.03 H84.48 Z M108.62,181.03 V193.10 H120.69 V181.03 H108.62 Z M120.69,181.03 V193.10 H132.76 V181.03 H120.69 Z M132.76,181.03 V193.10 H144.83 V181.03 H132.76 Z M168.97,181.03 V193.10 H181.03 V181.03 H168.97 Z M217.24,181.03 V193.10 H229.31 V181.03 H217.24 Z M241.38,181.03 V193.10 H253.45 V181.03 H241.38 Z M253.45,181.03 V193.10 H265.52 V181.03 H253.45 Z M265.52,181.03 V193.10 H277.59 V181.03 H265.52 Z M277.59,181.03 V193.10 H289.66 V181.03 H277.59 Z M325.86,181.03 V193.10 H337.93 V181.03 H325.86 Z M0,193.10 V205.17 H12.07 V193.10 H0 Z M36.21,193.10 V205.17 H48.28 V193.10 H36.21 Z M60.34,193.10 V205.17 H72.41 V193.10 H60.34 Z M72.41,193.10 V205.17 H84.48 V193.10 H72.41 Z M84.48,193.10 V205.17 H96.55 V193.10 H84.48 Z M120.69,193.10 V205.17 H132.76 V193.10 H120.69 Z M132.76,193.10 V205.17 H144.83 V193.10 H132.76 Z M181.03,193.10 V205.17 H193.10 V193.10 H181.03 Z M193.10,193.10 V205.17 H205.17 V193.10 H193.10 Z M277.59,193.10 V205.17 H289.66 V193.10 H277.59 Z M289.66,193.10 V205.17 H301.72 V193.10 H289.66 Z M301.72,193.10 V205.17 H313.79 V193.10 H301.72 Z M0,205.17 V217.24 H12.07 V205.17 H0 Z M36.21,205.17 V217.24 H48.28 V205.17 H36.21 Z M108.62,205.17 V217.24 H120.69 V205.17 H108.62 Z M156.90,205.17 V217.24 H168.97 V205.17 H156.90 Z M168.97,205.17 V217.24 H181.03 V205.17 H168.97 Z M181.03,205.17 V217.24 H193.10 V205.17 H181.03 Z M217.24,205.17 V217.24 H229.31 V205.17 H217.24 Z M241.38,205.17 V217.24 H253.45 V205.17 H241.38 Z M289.66,205.17 V217.24 H301.72 V205.17 H289.66 Z M313.79,205.17 V217.24 H325.86 V205.17 H313.79 Z M337.93,205.17 V217.24 H350 V205.17 H337.93 Z M0,217.24 V229.31 H12.07 V217.24 H0 Z M24.14,217.24 V229.31 H36.21 V217.24 H24.14 Z M48.28,217.24 V229.31 H60.34 V217.24 H48.28 Z M60.34,217.24 V229.31 H72.41 V217.24 H60.34 Z M72.41,217.24 V229.31 H84.48 V217.24 H72.41 Z M96.55,217.24 V229.31 H108.62 V217.24 H96.55 Z M120.69,217.24 V229.31 H132.76 V217.24 H120.69 Z M132.76,217.24 V229.31 H144.83 V217.24 H132.76 Z M181.03,217.24 V229.31 H193.10 V217.24 H181.03 Z M205.17,217.24 V229.31 H217.24 V217.24 H205.17 Z M253.45,217.24 V229.31 H265.52 V217.24 H253.45 Z M265.52,217.24 V229.31 H277.59 V217.24 H265.52 Z M289.66,217.24 V229.31 H301.72 V217.24 H289.66 Z M313.79,217.24 V229.31 H325.86 V217.24 H313.79 Z M325.86,217.24 V229.31 H337.93 V217.24 H325.86 Z M337.93,217.24 V229.31 H350 V217.24 H337.93 Z M0,229.31 V241.38 H12.07 V229.31 H0 Z M12.07,229.31 V241.38 H24.14 V229.31 H12.07 Z M24.14,229.31 V241.38 H36.21 V229.31 H24.14 Z M36.21,229.31 V241.38 H48.28 V229.31 H36.21 Z M48.28,229.31 V241.38 H60.34 V229.31 H48.28 Z M96.55,229.31 V241.38 H108.62 V229.31 H96.55 Z M132.76,229.31 V241.38 H144.83 V229.31 H132.76 Z M144.83,229.31 V241.38 H156.90 V229.31 H144.83 Z M156.90,229.31 V241.38 H168.97 V229.31 H156.90 Z M181.03,229.31 V241.38 H193.10 V229.31 H181.03 Z M205.17,229.31 V241.38 H217.24 V229.31 H205.17 Z M217.24,229.31 V241.38 H229.31 V229.31 H217.24 Z M265.52,229.31 V241.38 H277.59 V229.31 H265.52 Z M277.59,229.31 V241.38 H289.66 V229.31 H277.59 Z M289.66,229.31 V241.38 H301.72 V229.31 H289.66 Z M301.72,229.31 V241.38 H313.79 V229.31 H301.72 Z M313.79,229.31 V241.38 H325.86 V229.31 H313.79 Z M337.93,229.31 V241.38 H350 V229.31 H337.93 Z M24.14,241.38 V253.45 H36.21 V241.38 H24.14 Z M48.28,241.38 V253.45 H60.34 V241.38 H48.28 Z M60.34,241.38 V253.45 H72.41 V241.38 H60.34 Z M72.41,241.38 V253.45 H84.48 V241.38 H72.41 Z M108.62,241.38 V253.45 H120.69 V241.38 H108.62 Z M132.76,241.38 V253.45 H144.83 V241.38 H132.76 Z M144.83,241.38 V253.45 H156.90 V241.38 H144.83 Z M156.90,241.38 V253.45 H168.97 V241.38 H156.90 Z M168.97,241.38 V253.45 H181.03 V241.38 H168.97 Z M193.10,241.38 V253.45 H205.17 V241.38 H193.10 Z M205.17,241.38 V253.45 H217.24 V241.38 H205.17 Z M229.31,241.38 V253.45 H241.38 V241.38 H229.31 Z M241.38,241.38 V253.45 H253.45 V241.38 H241.38 Z M253.45,241.38 V253.45 H265.52 V241.38 H253.45 Z M265.52,241.38 V253.45 H277.59 V241.38 H265.52 Z M277.59,241.38 V253.45 H289.66 V241.38 H277.59 Z M289.66,241.38 V253.45 H301.72 V241.38 H289.66 Z M301.72,241.38 V253.45 H313.79 V241.38 H301.72 Z M313.79,241.38 V253.45 H325.86 V241.38 H313.79 Z M96.55,253.45 V265.52 H108.62 V253.45 H96.55 Z M120.69,253.45 V265.52 H132.76 V253.45 H120.69 Z M144.83,253.45 V265.52 H156.90 V253.45 H144.83 Z M168.97,253.45 V265.52 H181.03 V253.45 H168.97 Z M181.03,253.45 V265.52 H193.10 V253.45 H181.03 Z M229.31,253.45 V265.52 H241.38 V253.45 H229.31 Z M241.38,253.45 V265.52 H253.45 V253.45 H241.38 Z M289.66,253.45 V265.52 H301.72 V253.45 H289.66 Z M313.79,253.45 V265.52 H325.86 V253.45 H313.79 Z M325.86,253.45 V265.52 H337.93 V253.45 H325.86 Z M337.93,253.45 V265.52 H350 V253.45 H337.93 Z M0,265.52 V277.59 H12.07 V265.52 H0 Z M12.07,265.52 V277.59 H24.14 V265.52 H12.07 Z M24.14,265.52 V277.59 H36.21 V265.52 H24.14 Z M36.21,265.52 V277.59 H48.28 V265.52 H36.21 Z M48.28,265.52 V277.59 H60.34 V265.52 H48.28 Z M60.34,265.52 V277.59 H72.41 V265.52 H60.34 Z M72.41,265.52 V277.59 H84.48 V265.52 H72.41 Z M120.69,265.52 V277.59 H132.76 V265.52 H120.69 Z M132.76,265.52 V277.59 H144.83 V265.52 H132.76 Z M144.83,265.52 V277.59 H156.90 V265.52 H144.83 Z M156.90,265.52 V277.59 H168.97 V265.52 H156.90 Z M168.97,265.52 V277.59 H181.03 V265.52 H168.97 Z M181.03,265.52 V277.59 H193.10 V265.52 H181.03 Z M205.17,265.52 V277.59 H217.24 V265.52 H205.17 Z M229.31,265.52 V277.59 H241.38 V265.52 H229.31 Z M241.38,265.52 V277.59 H253.45 V265.52 H241.38 Z M265.52,265.52 V277.59 H277.59 V265.52 H265.52 Z M289.66,265.52 V277.59 H301.72 V265.52 H289.66 Z M313.79,265.52 V277.59 H325.86 V265.52 H313.79 Z M325.86,265.52 V277.59 H337.93 V265.52 H325.86 Z M0,277.59 V289.66 H12.07 V277.59 H0 Z M72.41,277.59 V289.66 H84.48 V277.59 H72.41 Z M108.62,277.59 V289.66 H120.69 V277.59 H108.62 Z M168.97,277.59 V289.66 H181.03 V277.59 H168.97 Z M193.10,277.59 V289.66 H205.17 V277.59 H193.10 Z M205.17,277.59 V289.66 H217.24 V277.59 H205.17 Z M229.31,277.59 V289.66 H241.38 V277.59 H229.31 Z M241.38,277.59 V289.66 H253.45 V277.59 H241.38 Z M289.66,277.59 V289.66 H301.72 V277.59 H289.66 Z M301.72,277.59 V289.66 H313.79 V277.59 H301.72 Z M313.79,277.59 V289.66 H325.86 V277.59 H313.79 Z M0,289.66 V301.72 H12.07 V289.66 H0 Z M24.14,289.66 V301.72 H36.21 V289.66 H24.14 Z M36.21,289.66 V301.72 H48.28 V289.66 H36.21 Z M48.28,289.66 V301.72 H60.34 V289.66 H48.28 Z M72.41,289.66 V301.72 H84.48 V289.66 H72.41 Z M108.62,289.66 V301.72 H120.69 V289.66 H108.62 Z M132.76,289.66 V301.72 H144.83 V289.66 H132.76 Z M156.90,289.66 V301.72 H168.97 V289.66 H156.90 Z M181.03,289.66 V301.72 H193.10 V289.66 H181.03 Z M205.17,289.66 V301.72 H217.24 V289.66 H205.17 Z M217.24,289.66 V301.72 H229.31 V289.66 H217.24 Z M229.31,289.66 V301.72 H241.38 V289.66 H229.31 Z M241.38,289.66 V301.72 H253.45 V289.66 H241.38 Z M253.45,289.66 V301.72 H265.52 V289.66 H253.45 Z M265.52,289.66 V301.72 H277.59 V289.66 H265.52 Z M277.59,289.66 V301.72 H289.66 V289.66 H277.59 Z M289.66,289.66 V301.72 H301.72 V289.66 H289.66 Z M313.79,289.66 V301.72 H325.86 V289.66 H313.79 Z M325.86,289.66 V301.72 H337.93 V289.66 H325.86 Z M337.93,289.66 V301.72 H350 V289.66 H337.93 Z M0,301.72 V313.79 H12.07 V301.72 H0 Z M24.14,301.72 V313.79 H36.21 V301.72 H24.14 Z M36.21,301.72 V313.79 H48.28 V301.72 H36.21 Z M48.28,301.72 V313.79 H60.34 V301.72 H48.28 Z M72.41,301.72 V313.79 H84.48 V301.72 H72.41 Z M108.62,301.72 V313.79 H120.69 V301.72 H108.62 Z M120.69,301.72 V313.79 H132.76 V301.72 H120.69 Z M144.83,301.72 V313.79 H156.90 V301.72 H144.83 Z M156.90,301.72 V313.79 H168.97 V301.72 H156.90 Z M181.03,301.72 V313.79 H193.10 V301.72 H181.03 Z M193.10,301.72 V313.79 H205.17 V301.72 H193.10 Z M205.17,301.72 V313.79 H217.24 V301.72 H205.17 Z M229.31,301.72 V313.79 H241.38 V301.72 H229.31 Z M253.45,301.72 V313.79 H265.52 V301.72 H253.45 Z M277.59,301.72 V313.79 H289.66 V301.72 H277.59 Z M301.72,301.72 V313.79 H313.79 V301.72 H301.72 Z M325.86,301.72 V313.79 H337.93 V301.72 H325.86 Z M337.93,301.72 V313.79 H350 V301.72 H337.93 Z M0,313.79 V325.86 H12.07 V313.79 H0 Z M24.14,313.79 V325.86 H36.21 V313.79 H24.14 Z M36.21,313.79 V325.86 H48.28 V313.79 H36.21 Z M48.28,313.79 V325.86 H60.34 V313.79 H48.28 Z M72.41,313.79 V325.86 H84.48 V313.79 H72.41 Z M181.03,313.79 V325.86 H193.10 V313.79 H181.03 Z M193.10,313.79 V325.86 H205.17 V313.79 H193.10 Z M205.17,313.79 V325.86 H217.24 V313.79 H205.17 Z M241.38,313.79 V325.86 H253.45 V313.79 H241.38 Z M253.45,313.79 V325.86 H265.52 V313.79 H253.45 Z M301.72,313.79 V325.86 H313.79 V313.79 H301.72 Z M325.86,313.79 V325.86 H337.93 V313.79 H325.86 Z M337.93,313.79 V325.86 H350 V313.79 H337.93 Z M0,325.86 V337.93 H12.07 V325.86 H0 Z M72.41,325.86 V337.93 H84.48 V325.86 H72.41 Z M96.55,325.86 V337.93 H108.62 V325.86 H96.55 Z M108.62,325.86 V337.93 H120.69 V325.86 H108.62 Z M144.83,325.86 V337.93 H156.90 V325.86 H144.83 Z M181.03,325.86 V337.93 H193.10 V325.86 H181.03 Z M241.38,325.86 V337.93 H253.45 V325.86 H241.38 Z M277.59,325.86 V337.93 H289.66 V325.86 H277.59 Z M289.66,325.86 V337.93 H301.72 V325.86 H289.66 Z M301.72,325.86 V337.93 H313.79 V325.86 H301.72 Z M313.79,325.86 V337.93 H325.86 V325.86 H313.79 Z M0,337.93 V350 H12.07 V337.93 H0 Z M12.07,337.93 V350 H24.14 V337.93 H12.07 Z M24.14,337.93 V350 H36.21 V337.93 H24.14 Z M36.21,337.93 V350 H48.28 V337.93 H36.21 Z M48.28,337.93 V350 H60.34 V337.93 H48.28 Z M60.34,337.93 V350 H72.41 V337.93 H60.34 Z M72.41,337.93 V350 H84.48 V337.93 H72.41 Z M96.55,337.93 V350 H108.62 V337.93 H96.55 Z M156.90,337.93 V350 H168.97 V337.93 H156.90 Z M193.10,337.93 V350 H205.17 V337.93 H193.10 Z M205.17,337.93 V350 H217.24 V337.93 H205.17 Z M217.24,337.93 V350 H229.31 V337.93 H217.24 Z M229.31,337.93 V350 H241.38 V337.93 H229.31 Z M241.38,337.93 V350 H253.45 V337.93 H241.38 Z M277.59,337.93 V350 H289.66 V337.93 H277.59 Z M289.66,337.93 V350 H301.72 V337.93 H289.66 Z M325.86,337.93 V350 H337.93 V337.93 H325.86 Z "></path></svg><circle fill="#fff" stroke-width="6px" stroke="#24292F" cx="175" cy="175" r="65.75"></circle><svg x="117.25" y="117.25" width="115.5" height="115.5" viewBox="0 0 24 24" fill="#24292F"><path d="M12 0c-6.626 0-12 5.373-12 12 0 5.302 3.438 9.8 8.207 11.387.599.111.793-.261.793-.577v-2.234c-3.338.726-4.033-1.416-4.033-1.416-.546-1.387-1.333-1.756-1.333-1.756-1.089-.745.083-.729.083-.729 1.205.084 1.839 1.237 1.839 1.237 1.07 1.834 2.807 1.304 3.492.997.107-.775.418-1.305.762-1.604-2.665-.305-5.467-1.334-5.467-5.931 0-1.311.469-2.381 1.236-3.221-.124-.303-.535-1.524.117-3.176 0 0 1.008-.322 3.301 1.23.957-.266 1.983-.399 3.003-.404 1.02.005 2.047.138 3.006.404 2.291-1.552 3.297-1.23 3.297-1.23.653 1.653.242 2.874.118 3.176.77.84 1.235 1.911 1.235 3.221 0 4.609-2.807 5.624-5.479 5.921.43.372.823 1.102.823 2.222v3.293c0 .319.192.694.801.576 4.765-1.589 8.199-6.086 8.199-11.386 0-6.627-5.373-12-12-12z"></path></svg></svg>